<?xml version="1.0" encoding="UTF-8" standalone="no"?>
<!-- Created with Inkscape (http://www.inkscape.org/) -->

<svg
   width="99.999992mm"
   height="99.999992mm"
   viewBox="0 0 99.999992 99.999992"
   version="1.1"
   id="svg1"
   xmlns="http://www.w3.org/2000/svg"
   xmlns:svg="http://www.w3.org/2000/svg">
  <defs
     id="defs1" />
  <rect
     style="display:inline;fill:#dc76d2;fill-opacity:1;fill-rule:nonzero;stroke:none;stroke-width:0.308059;stroke-dasharray:0.308059, 1.23224;stroke-dashoffset:0"
     id="rect2"
     width="100"
     height="100"
     x="0"
     y="0"
     ry="15.658505" />
  <path
     d="m 78.572874,87.778492 v -1.839653 c -6.009532,-0.613217 -7.481253,-2.08494 -7.481253,-8.094472 V 49.759004 c 0,-11.528491 -5.396314,-18.396525 -14.471934,-18.396525 -5.641602,0 -9.443549,2.084938 -17.783309,9.934123 V 31.607766 L 37.977873,31.362479 C 31.968341,33.570061 27.798462,34.91914 21.05307,36.881436 v 2.084939 c 0.735861,-0.36793 1.962295,-0.490574 3.311373,-0.490574 3.434019,0 4.53781,1.839653 4.53781,7.849186 v 30.415589 c 0,6.99068 -1.349077,8.707689 -7.603896,9.198263 v 1.839653 H 47.298781 V 85.938839 C 41.043962,85.448265 39.204308,83.976543 39.204308,79.561378 V 45.098552 c 5.886889,-5.518959 8.585047,-6.990682 12.632282,-6.990682 6.009532,0 8.952976,3.80195 8.952976,11.896421 v 25.632494 c 0,7.72654 -1.594365,9.81148 -7.72654,10.302054 v 1.839653 z M 70.233117,8.9187162 h -3.556663 c -2.084939,4.6604538 -3.679305,6.1321758 -6.500104,6.1321758 -1.839654,0 -4.169881,-0.735861 -6.500106,-1.839653 L 50.732798,11.739517 C 47.911999,10.267794 44.84591,9.5319337 42.147754,9.5319337 c -6.132177,0 -10.547343,4.4151663 -12.386996,12.3869933 h 3.556663 c 1.349077,-3.801947 3.434017,-5.641601 6.254819,-5.641601 1.471722,0 3.188731,0.490574 5.028383,1.349079 l 2.820802,1.349079 c 5.028382,2.452869 6.868036,2.943443 9.934123,2.943443 6.745393,0 10.302055,-3.679304 12.877569,-13.0002108 z"
     id="text2"
     style="font-size:119.219px;font-family:'TeX Gyre Termes';-inkscape-font-specification:'TeX Gyre Termes, Normal';letter-spacing:0px;fill:#ffffff;stroke-width:3.55077"
     aria-label="ñ" />
  <ellipse
     style="display:none;fill:none;stroke:#000000;stroke-width:0.957735;stroke-dasharray:0.957735, 1.91547;stroke-dashoffset:0;stroke-opacity:1"
     id="path1"
     cx="50.000027"
     cy="50.000023"
     rx="41.947292"
     ry="41.947491" />
</svg>
